<svg xmlns="http://www.w3.org/2000/svg" aria-hidden="true" style="position:absolute;width:0;height:0;overflow:hidden">
  <defs>
    <symbol id="icon-close" viewBox="0 0 32 32">
      <path d="M32 3.223 28.777 0 16 12.777 3.223 0 0 3.223 12.777 16 0 28.777 3.223 32 16 19.223 28.777 32 32 28.777 19.223 16 32 3.223z"/>
    </symbol>

    <symbol id="icon-x4" viewBox="0 0 32 32">
      <path stroke-width="3.4286" stroke-miterlimit="4" stroke-linecap="round" stroke-linejoin="round" d="M24 8l-16 16"></path>
      <path stroke-width="3.4286" stroke-miterlimit="4" stroke-linecap="round" stroke-linejoin="round" d="M8 8l16 16"></path>
    </symbol>

    <symbol id="icon-pick" viewBox="0 0 32 32">
        <path d="M26.151 1.405c0.992-1.463 2.982-1.845 4.444-0.853s1.845 2.982 0.853 4.444l-17.356 25.6c-1.269 1.872-4.028 1.872-5.297 0l-8.244-12.16c-0.992-1.463-0.61-3.453 0.853-4.444s3.453-0.61 4.444 0.853l5.595 8.253 14.707-21.693z"></path>
    </symbol>

  </defs>
</svg>

