<svg xmlns="http://www.w3.org/2000/svg" aria-hidden="true" style="position:absolute;width:0;height:0;overflow:hidden">
  <defs>
    <symbol id="icon-close" viewBox="0 0 32 32">
      <path d="M32 3.223 28.777 0 16 12.777 3.223 0 0 3.223 12.777 16 0 28.777 3.223 32 16 19.223 28.777 32 32 28.777 19.223 16 32 3.223z"/>
    </symbol>

    <symbol id="icon-x4" viewBox="0 0 32 32">
      <path stroke-width="3.4286" stroke-miterlimit="4" stroke-linecap="round" stroke-linejoin="round" d="M24 8l-16 16"></path>
      <path stroke-width="3.4286" stroke-miterlimit="4" stroke-linecap="round" stroke-linejoin="round" d="M8 8l16 16"></path>
    </symbol>

    <symbol id="icon-pick" viewBox="0 0 32 32">
        <path d="M26.151 1.405c0.992-1.463 2.982-1.845 4.444-0.853s1.845 2.982 0.853 4.444l-17.356 25.6c-1.269 1.872-4.028 1.872-5.297 0l-8.244-12.16c-0.992-1.463-0.61-3.453 0.853-4.444s3.453-0.61 4.444 0.853l5.595 8.253 14.707-21.693z"></path>
    <symbol id="icon-gal-des1" viewBox="0 0 32 32">
      <path d="M0 0h32v32h-32v-32z"></path>
      <path d="M-388.8-220.8h1361.6c17.673 0 32 14.327 32 32v1393.6c0 17.673-14.327 32-32 32h-1361.6c-17.673 0-32-14.327-32-32v-1393.6c0-17.673 14.327-32 32-32z"></path>
      <path d="M-356.8-22.4h411.2v492.8h-411.2v-492.8z"></path>
      <path d="M20.060 10.162c0.397-0.585 1.193-0.738 1.778-0.341s0.738 1.193 0.341 1.778l-6.942 10.24c-0.508 0.749-1.611 0.749-2.119 0l-3.298-4.864c-0.397-0.585-0.244-1.381 0.341-1.778s1.381-0.244 1.778 0.341l2.238 3.301 5.883-8.677z"></path>
      <path stroke-linejoin="miter" stroke-linecap="butt" stroke-miterlimit="4" stroke-width="2.4" d="M6.4 1.2h19.2c2.872 0 5.2 2.328 5.2 5.2v19.2c0 2.872-2.328 5.2-5.2 5.2h-19.2c-2.872 0-5.2-2.328-5.2-5.2v-19.2c0-2.872 2.328-5.2 5.2-5.2z"></path>
    </symbol>

    <symbol id="icon-pick" viewBox="0 0 32 32">
        <path d="M26.151 1.405c0.992-1.463 2.982-1.845 4.444-0.853s1.845 2.982 0.853 4.444l-17.356 25.6c-1.269 1.872-4.028 1.872-5.297 0l-8.244-12.16c-0.992-1.463-0.61-3.453 0.853-4.444s3.453-0.61 4.444 0.853l5.595 8.253 14.707-21.693z"></path>
    </symbol>i

    <symbol id="icon-gal-des2" viewBox="0 0 32 32">
      <path fill="#dedede" style="fill: var(--color1, #dedede)" d="M0 0h32v32h-32v-32z"></path>
      <path fill="#fff" style="fill: var(--color2, #fff)" d="M-388.8-220.8h1361.6c17.673 0 32 14.327 32 32v1393.6c0 17.673-14.327 32-32 32h-1361.6c-17.673 0-32-14.327-32-32v-1393.6c0-17.673 14.327-32 32-32z"></path>
      <path fill="#faf3e7" style="fill: var(--color3, #faf3e7)" d="M-356.8-22.4h411.2v492.8h-411.2v-492.8z"></path>
      <path fill="#a1c487" style="fill: var(--color4, #a1c487)" d="M20.060 10.162c0.397-0.585 1.193-0.738 1.778-0.341s0.738 1.193 0.341 1.778l-6.942 10.24c-0.508 0.749-1.611 0.749-2.119 0l-3.298-4.864c-0.397-0.585-0.244-1.381 0.341-1.778s1.381-0.244 1.778 0.341l2.238 3.301 5.883-8.677z"></path>
      <path fill="none" stroke="#a1c487" style="stroke: var(--color4, #a1c487)" stroke-linejoin="miter" stroke-linecap="butt" stroke-miterlimit="4" stroke-width="2.4" d="M6.4 1.2h19.2c2.872 0 5.2 2.328 5.2 5.2v19.2c0 2.872-2.328 5.2-5.2 5.2h-19.2c-2.872 0-5.2-2.328-5.2-5.2v-19.2c0-2.872 2.328-5.2 5.2-5.2z"></path>
    </symbol>



    <symbol id="icon-check" viewBox="0 0 32 32">
      <path d="M0 0h32v32h-32v-32z"></path>
      <path d="M-530-204h590c22.091 0 40 17.909 40 40v1726c0 22.091-17.909 40-40 40h-590c-22.091 0-40-17.909-40-40v-1726c0-22.091 17.909-40 40-40z"></path>
      <path d="M-530-28h590v238h-590v-238z"></path>
      <path d="M19.807 10.527c0.372-0.549 1.118-0.692 1.667-0.32s0.692 1.118 0.32 1.667l-6.508 9.6c-0.476 0.702-1.51 0.702-1.986 0l-3.091-4.56c-0.372-0.549-0.229-1.295 0.32-1.667s1.295-0.229 1.667 0.32l2.098 3.095 5.515-8.135z"></path>
      <path stroke-linejoin="miter" stroke-linecap="butt" stroke-miterlimit="4" stroke-width="3" d="M8 1.5h16c3.59 0 6.5 2.91 6.5 6.5v16c0 3.59-2.91 6.5-6.5 6.5h-16c-3.59 0-6.5-2.91-6.5-6.5v-16c0-3.59 2.91-6.5 6.5-6.5z"></path>
    </symbol>

    <symbol id="icon-checkmark" viewBox="0 0 32 32">
      <path d="M27 4l-15 15-7-7-5 5 12 12 20-20z"></path>
    </symbol>

  </defs>
</svg>

