<svg xmlns="http://www.w3.org/2000/svg" aria-hidden="true" style="position:absolute;width:0;height:0;overflow:hidden">
  <defs>
    <symbol id="icon-close" viewBox="0 0 32 32">
      <path d="M32 3.223 28.777 0 16 12.777 3.223 0 0 3.223 12.777 16 0 28.777 3.223 32 16 19.223 28.777 32 32 28.777 19.223 16 32 3.223z"/>
    </symbol>

    <symbol id="icon-check" viewBox="0 0 32 32">
      <path d="M0 0h32v32h-32v-32z"></path>
      <path d="M-530-204h590c22.091 0 40 17.909 40 40v1726c0 22.091-17.909 40-40 40h-590c-22.091 0-40-17.909-40-40v-1726c0-22.091 17.909-40 40-40z"></path>
      <path d="M-530-28h590v238h-590v-238z"></path>
      <path d="M19.807 10.527c0.372-0.549 1.118-0.692 1.667-0.32s0.692 1.118 0.32 1.667l-6.508 9.6c-0.476 0.702-1.51 0.702-1.986 0l-3.091-4.56c-0.372-0.549-0.229-1.295 0.32-1.667s1.295-0.229 1.667 0.32l2.098 3.095 5.515-8.135z"></path>
      <path stroke-linejoin="miter" stroke-linecap="butt" stroke-miterlimit="4" stroke-width="3" d="M8 1.5h16c3.59 0 6.5 2.91 6.5 6.5v16c0 3.59-2.91 6.5-6.5 6.5h-16c-3.59 0-6.5-2.91-6.5-6.5v-16c0-3.59 2.91-6.5 6.5-6.5z"></path>
    </symbol>

  </defs>
</svg>
